{"title":"After.Earth.2013.DVDScreener.KORSUB","uid":8730320,"size":398067700,"categoryP":"video","categoryS":"movies","magnet":"?xt=urn:btih:8122a9a21d6cb1d709056aeb65f3748b245c8364&amp;dn=After.Earth.2013.DVDScreener.KORSUB&amp;tr=udp%3A%2F%2Ftracker.openbittorrent.com%3A80&amp;tr=udp%3A%2F%2Fopen.demonii.com%3A1337&amp;tr=udp%3A%2F%2Ftracker.coppersurfer.tk%3A6969&amp;tr=udp%3A%2F%2Fexodus.desync.com%3A6969","seeders":1,"leechers":0,"uploader":"xxxlavalxxx","files":-1,"time":1374589574,"description":" &lt;a href=&quot;http://www.imdb.com/title/tt1815862/&quot; rel=&quot;nofollow&quot; target=&quot;_NEW&quot;&gt;http://www.imdb.com/title/tt1815862/&lt;/a&gt;\n\n\n\nOne thousand years after cataclysmic events forced humanity's escape from Earth, Nova Prime has become mankind's new home. Legendary General Cypher Raige returns from an extended tour of duty to his estranged family, ready to be a father to his 13-year-old son, Kitai. When an asteroid storm damages Cypher and Kitai's craft, they crash-land on a now unfamiliar and dangerous Earth. As his father lies dying in the cockpit, Kitai must trek across the hostile terrain to recover their rescue beacon. His whole life, Kitai has wanted nothing more than to be a soldier like his father. Today, he gets his chance.\n\n\n\nDirector:\n M. Night Shyamalan \n\nWriters:\n Gary Whitta (screenplay), M. Night Shyamalan (screenplay)\n\nStars:\n Jaden Smith, Will Smith, Sophie Okonedo \n\nGenres:\n  Action |  Adventure |  Sci-Fi \n\nCountry:\n USA \n\nLanguage:\n English \n\n\n\nFormat                                   : RealMedia\nFile size                                : 380 MiB\nDuration                                 : 1h 30mn\nOverall bit rate                         : 575 Kbps\nMovie name                               : VTS_01_1-rm\n\nVideo\nID                                       : 1\nFormat                                   : RealVideo 4\nCodec ID                                 : RV40\nCodec ID/Info                            : Based on AVC (H.264), Real Player 9\nDuration                                 : 1h 30mn\nBit rate                                 : 479 Kbps\nWidth                                    : 720 pixels\nHeight                                   : 408 pixels\nDisplay aspect ratio                     : 16:9\nFrame rate                               : 29.970 fps\nBits/(Pixel*Frame)                       : 0.054\nStream size                              : 310 MiB (82%)\n\nAudio\nID                                       : 0\nFormat                                   : AAC\nFormat/Info                              : Advanced Audio Codec\nFormat profile                           : LC\nCodec ID                                 : raac\nCodec ID/Info                            : Real Player 9\nDuration                                 : 1h 30mn\nBit rate                                 : 96.0 Kbps\nChannel(s)                               : 2 channels\nSampling rate                            : 44.1 KHz\nBit depth                                : 16 bits\nCompression mode                         : Lossy\nStream size                              : 62.1 MiB (16%)\n\n\n\nscreens\n\n\n    &lt;a href=&quot;\thttp://addpix.net/viewer.php?file=36248332681349833901.jpg&quot; rel=&quot;nofollow&quot; target=&quot;_NEW&quot;&gt;\thttp://addpix.net/viewer.php?file=36248332681349833901.jpg&lt;/a&gt;\n    &lt;a href=&quot;\thttp://addpix.net/viewer.php?file=90766903341009931876.jpg&quot; rel=&quot;nofollow&quot; target=&quot;_NEW&quot;&gt;\thttp://addpix.net/viewer.php?file=90766903341009931876.jpg&lt;/a&gt;\n    &lt;a href=&quot;\thttp://addpix.net/viewer.php?file=12423813644618740836.jpg&quot; rel=&quot;nofollow&quot; target=&quot;_NEW&quot;&gt;\thttp://addpix.net/viewer.php?file=12423813644618740836.jpg&lt;/a&gt;\n    &lt;a href=&quot;\thttp://addpix.net/viewer.php?file=43393860114734102871.jpg&quot; rel=&quot;nofollow&quot; target=&quot;_NEW&quot;&gt;\thttp://addpix.net/viewer.php?file=43393860114734102871.jpg&lt;/a&gt;\n    &lt;a href=&quot;\thttp://addpix.net/viewer.php?file=50395905337971576308.jpg&quot; rel=&quot;nofollow&quot; target=&quot;_NEW&quot;&gt;\thttp://addpix.net/viewer.php?file=50395905337971576308.jpg&lt;/a&gt;\n    &lt;a href=&quot;\thttp://addpix.net/viewer.php?file=25708100957603191468.jpg&quot; rel=&quot;nofollow&quot; target=&quot;_NEW&quot;&gt;\thttp://addpix.net/viewer.php?file=25708100957603191468.jpg&lt;/a&gt;","torrent":{"xt":"urn:btih:8122a9a21d6cb1d709056aeb65f3748b245c8364","amp;dn":"After.Earth.2013.DVDScreener.KORSUB","amp;tr":["udp%3A%2F%2Ftracker.openbittorrent.com%3A80","udp%3A%2F%2Fopen.demonii.com%3A1337","udp%3A%2F%2Ftracker.coppersurfer.tk%3A6969","udp%3A%2F%2Fexodus.desync.com%3A6969"],"infoHash":"8122a9a21d6cb1d709056aeb65f3748b245c8364","infoHashBuffer":{"type":"Buffer","data":[129,34,169,162,29,108,177,215,9,5,106,235,101,243,116,139,36,92,131,100]},"announce":[],"urlList":[]}}